<svg viewBox="0 0 79.9 52.2" xmlns="http://www.w3.org/2000/svg"><path d="m52.2 5.8c0-3.2-2.6-5.8-5.8-5.8h-13c-3.2 0-5.8 2.6-5.8 5.8v13c0 3.2 2.6 5.8 5.8 5.8h13c3.2 0 5.8-2.6 5.8-5.8zm-2.8 13c0 1.6-1.3 2.9-2.9 2.9h-13.1c-1.6 0-2.9-1.3-2.9-2.9v-13.1c0-1.6 1.3-2.9 2.9-2.9h13.1c1.6 0 2.9 1.3 2.9 2.9z" opacity=".28"/><path d="m36.3 13h7.2l-3.6-7.2z" opacity=".28"/><path d="m24.6 33.4c0-3.2-2.6-5.8-5.8-5.8h-13c-3.2 0-5.8 2.6-5.8 5.8v13c0 3.2 2.6 5.8 5.8 5.8h13c3.2 0 5.8-2.6 5.8-5.8zm-2.8 13.1c0 1.6-1.3 2.9-2.9 2.9h-13.1c-1.6 0-2.9-1.3-2.9-2.9v-13.1c0-1.6 1.3-2.9 2.9-2.9h13.1c1.6 0 2.9 1.3 2.9 2.9z"/><path d="m15.9 40.7v-7.3l-7.3 3.7z"/><path d="m52.2 33.4c0-3.2-2.6-5.8-5.8-5.8h-13c-3.2 0-5.8 2.6-5.8 5.8v13c0 3.2 2.6 5.8 5.8 5.8h13c3.2 0 5.8-2.6 5.8-5.8zm-2.8 13.1c0 1.6-1.3 2.9-2.9 2.9h-13.1c-1.6 0-2.9-1.3-2.9-2.9v-13.1c0-1.6 1.3-2.9 2.9-2.9h13.1c1.6 0 2.9 1.3 2.9 2.9z" opacity=".28"/><path d="m39.9 40.7 3.6-7.3h-7.2z" opacity=".28"/><path d="m79.9 33.4c0-3.2-2.6-5.8-5.8-5.8h-13c-3.2 0-5.8 2.6-5.8 5.8v13c0 3.2 2.6 5.8 5.8 5.8h13c3.2 0 5.8-2.6 5.8-5.8zm-2.9 13.1c0 1.6-1.3 2.9-2.9 2.9h-13.1c-1.6 0-2.9-1.3-2.9-2.9v-13.1c0-1.6 1.3-2.9 2.9-2.9h13.1c1.6 0 2.9 1.3 2.9 2.9z"/><path d="m63.9 40.7 7.3-3.6-7.3-3.7z"/></svg>