<svg enable-background="new 0 0 100 100" viewBox="0 0 100 125" xmlns="http://www.w3.org/2000/svg"><path d="m62.3 29.7c0-3.2-2.6-5.8-5.8-5.8h-13c-3.2 0-5.8 2.6-5.8 5.8v13c0 3.2 2.6 5.8 5.8 5.8h13c3.2 0 5.8-2.6 5.8-5.8zm-2.8 13c0 1.6-1.3 2.9-2.9 2.9h-13.1c-1.6 0-2.9-1.3-2.9-2.9v-13.1c0-1.6 1.3-2.9 2.9-2.9h13.1c1.6 0 2.9 1.3 2.9 2.9z"/><path d="m46.4 36.9h7.2l-3.6-7.2z"/><path d="m34.7 57.3c0-3.2-2.6-5.8-5.8-5.8h-13c-3.2 0-5.8 2.6-5.8 5.8v13c0 3.2 2.6 5.8 5.8 5.8h13c3.2 0 5.8-2.6 5.8-5.8zm-2.8 13.1c0 1.6-1.3 2.9-2.9 2.9h-13.1c-1.6 0-2.9-1.3-2.9-2.9v-13.1c0-1.6 1.3-2.9 2.9-2.9h13.1c1.6 0 2.9 1.3 2.9 2.9z"/><path d="m26 64.6v-7.3l-7.3 3.7z"/><path d="m62.3 57.3c0-3.2-2.6-5.8-5.8-5.8h-13c-3.2 0-5.8 2.6-5.8 5.8v13c0 3.2 2.6 5.8 5.8 5.8h13c3.2 0 5.8-2.6 5.8-5.8zm-2.8 13.1c0 1.6-1.3 2.9-2.9 2.9h-13.1c-1.6 0-2.9-1.3-2.9-2.9v-13.1c0-1.6 1.3-2.9 2.9-2.9h13.1c1.6 0 2.9 1.3 2.9 2.9z"/><path d="m50 64.6 3.6-7.3h-7.2z"/><path d="m90 57.3c0-3.2-2.6-5.8-5.8-5.8h-13c-3.2 0-5.8 2.6-5.8 5.8v13c0 3.2 2.6 5.8 5.8 5.8h13c3.2 0 5.8-2.6 5.8-5.8zm-2.9 13.1c0 1.6-1.3 2.9-2.9 2.9h-13.1c-1.6 0-2.9-1.3-2.9-2.9v-13.1c0-1.6 1.3-2.9 2.9-2.9h13.1c1.6 0 2.9 1.3 2.9 2.9z"/><path d="m74 64.6 7.3-3.6-7.3-3.7z"/><g font-family="'Helvetica Neue', Helvetica, Arial-Unicode, Arial, Sans-serif" font-size="5" font-weight="bold"><text y="115">Created by Musmellow</text><text y="120">from the Noun Project</text></g></svg>