<?xml version="1.0" standalone="no"?>
<!DOCTYPE svg PUBLIC "-//W3C//DTD SVG 20010904//EN"
 "http://www.w3.org/TR/2001/REC-SVG-20010904/DTD/svg10.dtd">
<svg version="1.0" xmlns="http://www.w3.org/2000/svg"
 width="384.000000pt" height="384.000000pt" viewBox="0 0 384.000000 384.000000"
 preserveAspectRatio="xMidYMid meet">
<metadata>
Created by potrace 1.14, written by Peter Selinger 2001-2017
</metadata>
<g transform="translate(0.000000,384.000000) scale(0.100000,-0.100000)"
fill="#000000" stroke="none">
<path d="M330 3819 c0 -7 -9 -9 -22 -6 -22 6 -22 6 -4 -9 19 -13 19 -14 -7
-12 -15 1 -27 6 -27 10 0 5 -13 2 -30 -7 -19 -10 -30 -23 -30 -36 0 -16 -4
-20 -17 -15 -12 4 -9 -1 6 -12 16 -13 20 -21 12 -26 -6 -4 -8 -12 -5 -18 4 -7
2 -8 -4 -4 -7 4 -12 2 -12 -3 0 -6 -5 -11 -12 -11 -6 0 -4 8 6 19 11 12 14 21
7 26 -11 6 -12 5 -15 -14 0 -5 -4 -12 -8 -16 -4 -4 -4 -14 -1 -23 5 -11 3 -13
-8 -7 -12 8 -12 6 0 -8 14 -18 26 -23 16 -8 -3 6 5 15 17 21 21 10 22 10 5 -4
-20 -16 -21 -24 -4 -46 8 -10 2 -8 -18 4 -30 19 -30 19 -12 -1 9 -11 14 -23
10 -28 -5 -4 3 -4 17 -1 18 5 21 5 11 -3 -8 -5 -15 -19 -16 -30 -1 -17 1 -19
14 -8 12 10 14 9 7 -8 -4 -11 -4 -16 0 -12 4 4 14 1 23 -6 14 -11 15 -10 1 8
-7 11 -20 25 -28 32 -12 10 -11 12 6 10 11 0 20 -4 20 -7 -2 -19 3 -30 11 -26
11 7 9 -13 -3 -32 -4 -7 -4 -12 1 -11 19 3 34 -2 29 -10 -4 -5 -2 -11 4 -13 9
-3 189 -690 205 -778 6 -37 11 -58 28 -125 9 -33 18 -73 21 -90 3 -16 10 -41
15 -55 5 -14 13 -43 17 -65 8 -44 10 -54 14 -57 2 -3 5 -18 13 -58 3 -14 13
-54 22 -90 9 -36 18 -72 20 -80 2 -8 22 -89 45 -180 23 -91 43 -173 45 -183 2
-10 7 -27 10 -37 3 -10 7 -27 9 -37 2 -10 19 -76 36 -148 18 -71 34 -139 36
-150 2 -11 31 -128 64 -260 33 -132 62 -249 65 -260 11 -53 15 -68 20 -85 3
-10 8 -27 10 -37 2 -10 27 -110 55 -223 29 -113 54 -216 56 -230 18 -96 39
-130 74 -114 10 5 71 60 135 122 64 62 121 109 127 106 6 -4 8 -3 5 3 -4 5 5
20 18 31 14 12 25 17 25 12 0 -6 -7 -13 -15 -16 -8 -4 -15 -10 -15 -16 0 -5 6
-6 13 -2 8 5 8 2 -2 -9 -7 -9 -10 -17 -5 -17 4 0 0 -6 -10 -13 -16 -12 -16
-13 2 -13 13 0 19 6 17 16 -1 8 3 21 11 28 16 15 18 8 4 -18 -7 -13 -7 -21 0
-25 5 -3 10 -12 10 -18 0 -8 -3 -8 -8 -2 -9 13 -27 13 -39 1 -5 -5 -3 -6 5 -2
7 4 15 1 18 -8 3 -9 11 -13 18 -9 6 3 8 3 4 -2 -4 -4 -2 -15 5 -23 10 -13 9
-14 -10 -4 -26 14 -45 15 -21 1 9 -5 15 -16 12 -23 -3 -8 9 -20 30 -30 20 -9
36 -19 36 -22 0 -3 -4 -2 -10 1 -6 4 -7 -1 -3 -11 4 -11 8 -13 11 -6 6 18 32
15 32 -4 0 -8 5 -12 10 -9 6 4 8 10 6 14 -3 4 6 7 19 7 13 0 23 -2 23 -5 -2
-20 3 -31 12 -26 5 3 8 11 6 18 -1 7 -1 9 1 4 3 -4 10 -4 16 0 7 4 4 -6 -7
-22 l-19 -30 33 30 c18 17 30 25 26 18 -5 -9 6 -11 38 -9 25 1 43 -1 40 -6 -3
-5 -11 -5 -17 -1 -7 3 -3 -3 7 -15 21 -25 36 -31 16 -7 -9 10 -9 15 -1 16 6 1
16 2 21 3 6 0 15 8 20 16 7 11 10 11 10 2 0 -7 5 -10 12 -6 7 4 8 3 4 -5 -4
-6 -12 -8 -18 -5 -7 4 -8 2 -4 -4 4 -7 -1 -9 -15 -7 -12 2 -19 1 -15 -2 11
-12 56 -11 49 0 -4 6 0 8 10 4 10 -4 16 -2 14 5 -1 5 6 12 16 13 9 2 15 -1 11
-6 -3 -5 -10 -7 -15 -4 -5 4 -6 -2 -2 -11 4 -11 8 -13 11 -6 2 7 8 12 13 12 6
0 7 -6 3 -12 -5 -10 -4 -10 6 -1 7 6 19 9 26 6 8 -3 14 0 14 5 0 6 -8 9 -18 7
-11 -2 -19 3 -19 11 0 10 4 11 13 3 9 -7 15 -5 22 7 8 15 9 15 15 0 5 -11 3
-15 -5 -10 -7 4 -8 3 -4 -5 10 -16 26 -4 19 14 -3 10 1 15 12 15 9 0 13 -4 10
-10 -3 -5 -1 -10 4 -10 15 0 14 13 -1 29 -11 12 -10 13 6 7 13 -4 17 -2 13 8
-4 11 -1 13 10 9 10 -4 14 -2 10 4 -5 8 5 10 30 8 31 -2 34 -1 20 10 -24 17
-21 27 6 20 17 -5 19 -4 7 4 -10 7 -11 11 -2 11 6 0 12 5 12 11 0 5 -6 7 -13
3 -7 -4 -9 -3 -4 2 5 5 14 9 20 9 7 1 11 7 9 14 -1 7 2 10 8 6 8 -5 7 -12 -2
-23 -11 -15 -11 -15 4 -4 13 10 17 10 21 0 3 -7 3 2 0 21 -6 31 -5 33 9 20 9
-8 13 -18 10 -23 -3 -5 0 -6 7 -2 6 4 9 11 6 16 -3 5 -1 11 5 15 5 3 10 11 10
18 0 6 -7 2 -16 -9 -14 -18 -15 -18 -4 4 6 12 15 20 20 17 5 -3 13 2 18 11 5
9 21 18 36 19 37 4 42 11 25 32 -12 15 -12 16 5 10 13 -5 17 -3 13 6 -3 8 -1
20 5 28 8 11 9 10 4 -3 -3 -10 -1 -18 4 -18 5 0 7 -8 4 -17 -5 -14 -4 -15 4
-4 5 7 8 21 5 30 -2 10 7 23 24 34 28 18 28 18 3 13 -14 -3 -19 -3 -12 0 6 3
9 11 6 16 -4 7 -2 8 4 4 7 -4 12 -4 13 1 4 47 16 64 30 43 7 -11 8 -9 5 10 -2
18 4 30 21 41 21 14 22 17 8 23 -14 5 -15 9 -6 20 9 11 9 15 -1 20 -7 3 -2 3
12 0 24 -7 25 -6 7 14 -14 15 -15 22 -6 28 7 4 10 3 6 -3 -7 -11 22 -28 31
-18 3 3 0 5 -7 5 -8 0 -10 7 -6 21 5 14 3 19 -3 15 -6 -3 -9 1 -8 11 2 9 8 19
14 21 7 2 12 8 12 13 0 6 -4 8 -8 5 -4 -2 -7 12 -7 32 1 20 -3 43 -8 50 -6 7
-6 16 -2 20 4 4 10 1 12 -5 3 -7 11 -13 19 -13 9 0 12 -5 8 -12 -5 -7 -2 -9 7
-6 23 9 62 -10 55 -28 -3 -8 -2 -12 3 -9 5 3 13 0 16 -5 5 -8 13 -6 24 4 15
14 18 14 18 1 0 -8 -4 -12 -9 -9 -4 3 -8 2 -8 -3 0 -13 49 -32 56 -22 3 5 11
9 17 9 7 0 6 -4 -3 -11 -12 -9 -11 -10 7 -6 16 3 20 1 16 -10 -4 -10 1 -13 21
-9 23 4 25 3 16 -15 -6 -10 -9 -19 -8 -20 28 -7 46 -10 61 -10 11 0 15 -5 10
-12 -4 -7 1 -6 11 2 15 13 16 11 11 -20 -6 -32 -5 -33 9 -14 9 11 16 16 16 10
0 -5 5 -3 10 5 6 9 10 10 10 3 0 -7 -8 -17 -17 -22 -23 -13 -12 -14 22 -1 17
7 24 7 20 0 -3 -6 -1 -10 4 -10 6 0 11 -8 11 -17 -1 -16 -2 -16 -15 1 -13 17
-17 18 -28 6 -7 -7 -7 -10 -1 -7 7 4 17 0 24 -8 7 -8 16 -13 20 -10 4 3 13 -2
20 -10 7 -8 19 -15 26 -15 16 0 19 -16 5 -24 -5 -4 -12 0 -14 6 -3 7 -6 8 -6
2 -1 -12 54 -64 66 -64 5 1 -1 9 -13 18 -20 17 -24 46 -9 60 4 4 6 0 5 -8 -4
-28 0 -41 10 -35 6 4 10 3 9 -2 -1 -4 0 -10 1 -13 1 -3 2 -20 3 -38 1 -23 -2
-31 -11 -27 -7 3 -10 0 -7 -6 4 -6 14 -8 22 -5 12 5 14 1 9 -20 -6 -22 -5 -24
8 -12 7 7 12 16 9 21 -2 4 1 7 6 7 14 0 14 -13 0 -27 -8 -8 -7 -13 2 -18 8 -5
10 -4 5 3 -4 7 -2 12 3 12 17 0 13 -11 -11 -38 l-23 -25 30 19 c16 10 26 14
22 7 -4 -6 -1 -14 5 -17 9 -3 8 -5 -2 -3 -8 1 -15 -3 -15 -8 0 -5 5 -9 10 -8
6 2 15 -13 21 -32 9 -28 8 -33 -2 -24 -9 7 -14 6 -20 -2 -4 -8 -3 -9 4 -5 7 4
12 3 12 -2 0 -5 8 -12 18 -14 19 -5 27 -38 9 -38 -5 0 -7 6 -4 13 3 8 -1 14
-8 14 -11 0 -11 -5 -4 -19 7 -13 7 -23 -1 -33 -8 -10 -8 -15 1 -21 7 -4 9 -3
5 4 -3 6 -1 14 6 19 19 11 39 13 32 2 -3 -5 -10 -7 -15 -4 -5 4 -9 1 -9 -4 0
-6 5 -11 10 -11 6 0 10 -5 10 -11 0 -5 -4 -8 -9 -4 -5 3 -12 1 -16 -4 -3 -6 3
-8 15 -6 19 4 24 -4 21 -35 -2 -13 0 -13 8 -1 5 8 7 21 4 30 -4 14 -3 14 5 1
6 -8 8 -18 6 -22 -3 -4 2 -8 11 -8 10 0 13 5 9 13 -6 9 -4 9 8 -1 9 -7 18 -9
20 -5 3 4 4 3 2 -3 -1 -7 8 -14 21 -16 16 -4 22 -1 18 9 -3 7 -10 10 -16 6 -6
-3 -7 -1 -3 6 4 6 12 9 17 6 5 -4 21 6 35 20 21 21 29 24 38 14 8 -9 8 -10 -1
-5 -9 5 -11 2 -6 -10 5 -15 7 -14 16 2 6 11 15 23 21 27 7 6 4 7 -6 3 -10 -3
-18 -1 -18 4 0 6 9 10 20 10 11 0 20 -5 20 -12 0 -6 3 -8 7 -5 3 4 -2 17 -13
29 l-19 22 30 -18 c30 -19 30 -19 13 0 -16 19 -16 20 3 21 10 1 17 -2 14 -7
-3 -5 0 -12 6 -16 7 -4 9 -3 6 3 -7 12 21 55 32 49 4 -3 13 0 21 5 12 7 11 8
-5 6 -11 -1 -27 -7 -35 -12 -19 -12 -51 -14 -44 -3 3 5 13 7 22 6 9 -2 16 2
15 9 -2 6 5 10 16 8 22 -4 36 5 36 25 0 10 10 15 27 15 15 1 30 4 33 7 4 4 14
4 23 1 14 -4 14 -3 3 5 -8 6 -19 8 -26 6 -6 -3 -12 2 -12 10 0 11 6 12 24 5
36 -13 38 -11 12 10 -23 19 -9 25 18 8 6 -4 14 -3 18 3 4 6 10 8 14 6 11 -7
10 27 -2 42 -8 10 -5 11 15 3 30 -11 39 -6 31 17 -4 10 -2 13 5 8 6 -3 13 -2
16 3 4 5 -5 8 -19 7 -13 -2 -22 1 -19 5 3 5 17 9 32 9 15 0 22 4 16 8 -6 4
-14 16 -17 27 -6 18 -6 18 6 4 11 -15 14 -14 31 9 11 14 14 22 8 18 -7 -4 -12
-1 -12 9 0 9 4 14 9 10 5 -3 13 -1 16 5 4 6 3 10 -2 9 -4 -1 -16 1 -26 6 -15
6 -16 10 -5 16 7 5 18 9 23 9 6 0 3 -5 -5 -10 -8 -5 -10 -10 -5 -10 6 0 17 5
25 10 11 7 11 10 2 10 -10 0 -10 5 -1 21 6 12 7 19 2 16 -5 -3 -15 3 -21 14
-12 18 -11 19 6 10 15 -8 18 -6 18 14 0 13 -4 21 -8 19 -5 -3 -6 -10 -3 -15 3
-5 -1 -6 -10 -2 -13 4 -14 8 -4 13 7 5 13 28 14 52 2 38 -1 44 -16 43 -10 -1
-22 -4 -25 -8 -4 -4 -12 -7 -18 -7 -6 0 -3 5 7 11 9 5 17 15 17 21 0 6 -7 5
-17 -3 -15 -13 -15 -12 -4 9 7 14 8 22 1 22 -5 0 -10 -5 -10 -12 0 -6 -7 -3
-15 8 -8 10 -15 15 -15 9 0 -5 -7 1 -16 15 -15 25 -15 25 -9 -10 4 -29 3 -31
-5 -13 -8 21 -12 22 -37 11 -15 -7 -32 -17 -36 -23 -5 -5 -5 1 -1 15 6 22 5
23 -9 11 -9 -7 -14 -18 -10 -24 3 -6 1 -7 -5 -3 -7 4 -12 1 -12 -6 0 -10 -2
-10 -9 0 -9 15 -17 15 -44 1 -10 -6 -14 -15 -11 -21 4 -6 3 -8 -4 -4 -6 3 -14
1 -17 -5 -4 -5 -13 -8 -20 -5 -19 7 -27 -5 -13 -21 6 -7 8 -16 4 -20 -3 -3 -6
-1 -6 5 0 7 -8 12 -17 12 -15 0 -16 -2 -3 -10 13 -8 13 -10 -2 -11 -10 -1 -22
-3 -28 -4 -5 -1 -13 -3 -16 -4 -4 0 -1 -7 5 -15 9 -11 7 -15 -8 -19 -11 -3
-25 1 -32 9 -6 8 -19 14 -28 14 -14 0 -14 2 -1 10 13 8 12 10 -2 10 -10 0 -18
4 -18 10 0 5 5 9 11 7 6 -1 14 5 16 13 3 12 2 12 -5 2 -7 -10 -11 -10 -21 2
-10 11 -9 15 4 19 11 4 11 4 -2 3 -10 -1 -17 -9 -17 -19 1 -9 -2 -15 -6 -12
-5 3 -6 23 -4 45 3 39 -7 52 -22 28 -4 -6 -3 -8 2 -5 6 3 11 -4 11 -15 2 -20
1 -20 -12 -2 -10 14 -10 24 -2 39 9 18 9 19 -7 6 -9 -8 -19 -11 -23 -7 -3 3
-1 6 5 6 7 0 12 5 12 11 0 5 -3 8 -8 5 -4 -2 -16 2 -27 10 -10 8 -13 14 -7 14
20 0 27 -5 24 -15 -2 -5 0 -6 4 -2 21 20 11 35 -20 31 -22 -2 -27 -1 -16 6 13
8 13 11 1 22 -11 11 -13 11 -6 -1 6 -10 4 -12 -5 -6 -10 6 -10 11 3 20 18 13
24 30 7 20 -6 -3 -13 1 -16 10 -6 14 -8 14 -20 -2 -10 -14 -12 -14 -11 -3 2 8
5 20 9 25 4 6 -3 12 -15 12 -17 2 -18 0 -7 -7 11 -7 10 -9 -8 -7 -14 1 -18 5
-12 11 15 15 12 26 -6 26 -9 0 -12 -5 -8 -12 4 -7 3 -8 -5 -4 -6 4 -9 11 -6
16 3 5 -2 13 -11 18 -15 8 -15 10 0 15 9 4 15 2 13 -5 -1 -5 6 -12 16 -13 17
-3 17 -2 3 14 -9 10 -13 21 -9 25 5 4 3 7 -2 6 -21 -5 -35 0 -32 11 1 6 -8 18
-21 26 -21 15 -22 14 -16 -3 5 -18 5 -18 -6 -1 -6 9 -8 22 -5 27 8 13 -52 73
-65 65 -5 -3 -10 -1 -10 4 0 6 5 11 12 11 6 0 8 3 5 6 -4 4 -14 1 -24 -7 -15
-13 -15 -12 -5 6 15 27 -12 59 -38 45 -13 -7 -22 -5 -31 6 -15 18 -21 47 -9
39 5 -3 12 0 16 6 4 7 3 9 -3 6 -6 -4 -13 0 -17 8 -3 8 -11 15 -18 14 -10 0
-10 -2 0 -6 6 -2 9 -9 6 -15 -6 -9 -31 19 -32 36 0 5 -6 13 -14 18 -10 8 -10
9 2 5 8 -2 15 -9 15 -14 0 -21 13 -24 18 -4 3 11 2 20 -2 19 -12 -2 -41 14
-41 24 0 5 4 7 8 4 5 -3 9 1 9 9 0 8 -5 13 -11 12 -6 -1 -10 3 -9 9 1 6 -9 12
-22 12 -15 0 -22 -5 -18 -12 3 -6 2 -8 -2 -4 -5 5 -9 19 -11 32 -2 23 23 49
512 521 99 96 500 484 612 593 87 83 103 104 97 122 -4 12 -16 25 -28 30 -12
5 -186 57 -387 115 -201 57 -381 109 -400 115 -592 171 -730 211 -757 216 -18
4 -33 11 -33 16 0 5 -3 7 -8 4 -4 -2 -46 7 -92 21 -47 13 -96 27 -109 29 -13
3 -39 11 -57 19 -19 8 -34 12 -34 10 0 -1 -21 4 -47 12 -50 15 -487 142 -513
149 -8 2 -76 21 -150 43 -368 108 -697 203 -718 208 -18 4 -21 8 -10 15 9 7 7
8 -9 5 -14 -3 -33 3 -47 14 -13 10 -27 15 -31 11 -5 -4 -5 -1 -1 6 6 9 11 10
20 3 7 -6 17 -7 21 -3 5 4 5 1 0 -7 -5 -9 -4 -12 3 -7 5 3 12 0 15 -6 3 -7 4
-3 4 9 -1 15 -6 20 -20 18 -11 -3 -21 4 -27 18 -7 17 -9 18 -9 5 -1 -25 -18
-22 -24 4 -4 12 -9 19 -12 16 -4 -3 -2 -15 4 -27 8 -14 8 -22 -1 -27 -6 -4 -8
-3 -4 4 3 6 2 13 -3 16 -5 4 -12 2 -16 -4 -8 -13 -25 -3 -25 13 0 7 4 6 10 -3
7 -12 9 -10 7 8 -1 22 -17 32 -17 11z m260 -220 c0 -5 -4 -9 -8 -9 -5 0 -9 7
-9 15 0 8 4 12 9 9 4 -3 8 -9 8 -15z m30 0 c0 16 13 7 16 -12 1 -7 -10 -13
-25 -13 -14 -1 -21 1 -14 3 7 2 9 12 6 21 -4 15 -3 15 6 2 9 -12 11 -13 11 -1z
m180 -44 c69 -20 150 -43 180 -51 30 -8 61 -17 69 -20 17 -6 -125 -154 -147
-154 -7 0 -10 -4 -7 -10 4 -6 -1 -7 -11 -3 -13 5 -15 3 -9 -8 5 -8 -3 -4 -16
7 -13 12 -31 19 -39 17 -13 -4 -13 -3 0 6 8 5 18 7 24 4 5 -3 6 -1 2 5 -5 8
-1 10 11 6 10 -3 7 1 -7 9 -14 9 -25 21 -25 29 0 7 -7 14 -15 14 -8 1 -21 2
-27 3 -7 0 -12 6 -10 12 1 6 -5 14 -13 16 -13 4 -13 3 0 -6 18 -13 1 -14 -20
-1 -13 8 -13 9 0 14 41 13 42 15 3 11 -24 -2 -43 1 -43 6 0 9 14 13 39 10 7
-2 10 3 6 9 -4 6 -20 9 -36 6 -16 -2 -32 1 -35 6 -4 7 -2 8 4 4 7 -4 12 -1 12
8 0 8 -5 18 -10 21 -6 4 -7 11 -4 17 4 7 2 8 -5 4 -9 -6 -9 -11 0 -22 7 -8 7
-14 1 -14 -13 0 -23 26 -16 44 3 8 0 17 -5 21 -15 8 -4 25 12 20 7 -2 68 -21
137 -40z m-150 4 c0 -4 -9 -7 -19 -6 -11 0 -18 4 -16 7 6 9 35 8 35 -1z m591
-133 c49 -10 65 -14 94 -26 17 -7 41 -14 55 -17 14 -3 30 -6 35 -7 6 -1 35
-10 65 -19 77 -25 95 -30 280 -83 91 -25 167 -48 169 -50 1 -1 -17 -22 -42
-46 -378 -366 -459 -444 -474 -452 -16 -8 -16 -8 -4 7 16 20 1 23 -18 5 -10
-11 -10 -8 -2 15 6 16 7 26 3 23 -13 -8 -30 7 -34 29 -1 11 -6 22 -9 25 -5 4
-67 240 -84 320 -2 8 -19 77 -38 152 -19 76 -32 136 -28 133 4 -2 18 -6 32 -9z
m-110 -28 c0 -7 2 -20 4 -28 14 -52 27 -108 31 -125 2 -11 17 -69 32 -128 16
-59 28 -121 28 -137 -1 -17 2 -30 7 -30 4 0 7 -5 7 -11 0 -5 -4 -7 -10 -4 -5
3 -10 2 -10 -4 0 -5 8 -11 18 -13 14 -3 14 -5 -4 -10 -13 -3 -21 0 -22 8 -4
33 -4 40 -1 54 2 8 -3 15 -11 15 -8 1 -14 6 -12 13 1 7 -3 12 -9 12 -5 0 -8 4
-4 9 3 6 -11 8 -32 6 -34 -4 -35 -3 -13 6 23 9 23 11 7 20 -9 6 -14 15 -11 21
4 7 2 8 -4 4 -11 -6 -16 5 -13 26 0 3 -17 5 -39 4 -33 -3 -36 -1 -25 11 17 17
10 40 -16 48 -11 4 -16 11 -13 17 4 7 2 8 -5 4 -6 -4 -8 -12 -5 -18 4 -7 2 -8
-5 -4 -7 5 -9 17 -5 29 6 22 6 22 -11 2 -14 -17 -16 -17 -11 -2 5 16 -4 21
-31 18 -7 -1 -13 3 -13 9 0 6 5 8 10 5 6 -3 10 1 10 10 0 10 5 13 12 9 7 -4 8
-3 4 5 -5 7 23 40 70 86 78 75 93 85 95 63z m-316 -8 c-3 -5 -1 -11 5 -15 13
-8 13 -25 0 -25 -5 0 -10 5 -10 11 0 7 -7 17 -16 23 -13 10 -13 12 6 13 11 1
18 -2 15 -7z m-390 -71 c-4 -5 -12 -9 -18 -8 -9 0 -8 2 1 6 6 2 9 10 6 15 -4
7 -2 8 5 4 6 -4 9 -12 6 -17z m23 -45 c2 -16 -1 -23 -7 -19 -7 4 -8 0 -4 -11
5 -14 8 -13 19 7 7 13 13 18 14 11 0 -7 5 -10 12 -6 7 4 8 3 4 -4 -4 -7 3 -17
19 -24 19 -8 22 -14 13 -20 -8 -6 -9 -11 -3 -14 27 -12 36 -23 39 -50 2 -17
10 -30 19 -32 9 -2 14 -9 11 -17 -3 -7 0 -16 5 -20 6 -3 8 -12 5 -18 -4 -7 -3
-8 1 -4 13 11 15 38 2 30 -6 -4 -8 0 -4 9 3 9 0 21 -6 27 -8 8 -8 11 0 11 11
0 29 -39 24 -49 -2 -2 3 -7 9 -11 12 -7 -97 -130 -115 -130 -8 0 -67 220 -71
265 0 6 -4 18 -7 28 -16 41 -17 50 -6 64 14 17 22 10 27 -23z m1977 -189 c165
-48 318 -92 340 -97 22 -6 43 -14 47 -17 4 -4 -83 -94 -193 -201 -111 -107
-235 -227 -275 -266 -71 -70 -72 -70 -83 -47 -6 13 -11 33 -11 43 0 10 -4 29
-9 42 -8 19 -75 293 -87 351 -2 10 -6 27 -9 37 -3 10 -7 27 -9 37 -2 10 -15
62 -29 117 l-25 98 21 -5 c12 -2 157 -44 322 -92z m-1382 41 c-5 -7 -9 -5 -11
6 -3 14 -7 16 -23 8 -12 -7 -19 -7 -19 -1 0 14 33 19 47 8 7 -5 10 -14 6 -21z
m1022 -216 c31 -129 59 -243 61 -252 2 -10 6 -26 8 -35 2 -10 14 -55 25 -100
30 -117 31 -115 -31 -93 -29 10 -111 35 -183 55 -71 20 -152 44 -180 52 -27 8
-54 15 -60 17 -5 1 -30 8 -55 15 -25 7 -54 20 -64 29 -15 14 -18 14 -12 2 4
-8 -3 -4 -15 10 -15 17 -20 19 -16 8 4 -10 2 -18 -3 -18 -6 0 -10 10 -10 23 0
18 -2 19 -10 7 -8 -13 -10 -12 -10 3 0 9 -3 16 -7 16 -5 -1 -12 -1 -18 0 -5 1
107 116 250 256 143 139 263 251 266 247 4 -4 32 -113 64 -242z m-965 170 c6
-11 7 -20 3 -21 -4 0 1 -4 11 -8 19 -7 19 -8 -2 -13 -12 -4 -20 -2 -17 2 3 5
-3 13 -12 19 -10 6 -12 11 -5 11 6 0 12 5 12 11 0 5 -4 7 -10 4 -5 -3 -10 -1
-10 4 0 18 19 12 30 -9z m103 -103 c7 4 5 -2 -3 -13 -8 -10 -16 -21 -18 -24
-2 -3 -2 4 0 15 2 13 -2 19 -10 17 -8 -1 -11 1 -8 6 2 4 1 14 -5 22 -7 12 -9
11 -9 -5 0 -16 -2 -17 -10 -5 -17 27 14 32 33 5 11 -14 24 -22 30 -18z m-483
-10 c0 -2 -9 -3 -20 -4 -13 -1 -18 2 -14 9 4 7 2 8 -5 4 -13 -9 -5 -27 12 -25
28 3 37 -3 37 -25 0 -14 4 -28 10 -31 6 -4 9 3 7 16 -1 12 4 23 11 25 7 1 8 0
2 -3 -5 -2 -10 -9 -10 -14 0 -6 4 -8 9 -5 14 9 51 -38 42 -53 -6 -9 -11 -10
-15 -2 -4 6 -2 11 4 11 6 0 8 5 4 11 -4 8 -9 7 -15 -2 -4 -7 -4 -18 1 -25 6
-6 6 -15 2 -20 -4 -5 2 -1 14 9 20 16 22 16 40 -5 10 -12 13 -18 5 -13 -11 6
-13 4 -8 -8 5 -14 2 -14 -34 -2 -21 8 -43 15 -47 15 -4 0 -25 5 -47 11 -51 14
-54 15 -92 24 -18 4 -33 13 -33 19 0 7 23 34 50 59 43 40 54 46 70 37 11 -6
20 -12 20 -13z m2290 -52 c8 -2 42 -11 75 -21 33 -10 65 -19 70 -20 6 -1 89
-25 185 -53 96 -29 180 -53 185 -55 59 -13 185 -52 185 -56 0 -3 -78 -81 -172
-172 -95 -91 -212 -204 -259 -250 -137 -133 -126 -127 -138 -81 -5 21 -12 49
-15 63 -3 14 -10 42 -15 63 -5 20 -7 37 -4 37 3 0 1 6 -4 13 -9 10 -24 62 -38
127 -10 47 -47 201 -73 303 -25 101 -27 117 -13 112 9 -4 23 -8 31 -10z m-68
-242 c42 -172 52 -223 41 -223 -8 0 -11 -5 -7 -11 4 -8 0 -8 -15 0 -11 7 -21
9 -21 5 0 -3 -6 -1 -13 5 -8 6 -18 7 -22 3 -5 -4 -5 -1 -1 6 4 7 1 12 -9 12
-9 0 -13 -4 -10 -10 3 -5 1 -10 -4 -10 -10 0 -15 14 -12 33 0 4 -4 7 -10 7 -7
0 -9 -11 -5 -27 3 -16 3 -23 0 -16 -3 6 -18 9 -37 7 -24 -4 -28 -2 -17 5 10 7
11 11 3 11 -25 0 -28 -2 -25 -17 2 -10 -1 -12 -9 -7 -9 5 -10 2 -6 -9 3 -10 3
-17 -2 -17 -5 0 -11 9 -14 20 -3 13 -1 18 5 13 7 -3 8 -1 4 5 -10 17 -23 15
-30 -4 -3 -8 -2 -12 4 -9 6 3 7 -1 4 -9 -3 -9 -10 -16 -16 -16 -5 0 -6 5 -2
11 4 7 1 10 -7 7 -8 -3 -13 -14 -12 -24 1 -10 0 -13 -3 -6 -3 6 -10 10 -15 6
-5 -3 -9 0 -9 5 0 6 5 11 11 11 5 0 7 5 3 11 -5 8 -8 8 -14 0 -3 -7 -14 -9
-22 -6 -10 4 -22 -2 -32 -17 l-17 -23 3 25 c2 14 8 29 13 33 6 5 -1 5 -14 2
-14 -4 -21 -3 -18 2 8 13 -25 13 -42 -1 -11 -8 -13 -8 -7 2 4 7 1 12 -8 12 -9
0 -18 -1 -19 -2 -2 -2 -11 3 -20 11 -11 9 -17 10 -17 2 0 -6 5 -12 10 -12 25
-3 29 -4 33 -9 3 -3 -10 -5 -28 -6 -19 0 -32 3 -29 8 3 4 -2 8 -12 8 -9 0 46
60 127 139 79 77 180 175 224 218 44 44 83 77 86 74 4 -3 31 -106 61 -228z
m-2347 113 c11 -3 74 -21 140 -41 66 -20 125 -37 130 -38 52 -13 114 -44 129
-65 11 -14 14 -22 8 -18 -7 4 -12 2 -12 -3 0 -6 6 -11 13 -11 8 0 23 -11 36
-23 18 -20 19 -26 8 -35 -8 -7 -18 -8 -22 -4 -5 4 -5 1 -1 -6 6 -10 11 -10 22
-1 17 14 44 5 44 -16 0 -9 -5 -13 -10 -10 -6 4 -7 11 -4 17 5 7 2 8 -5 3 -9
-5 -5 -15 14 -35 18 -18 24 -33 19 -42 -6 -10 -5 -10 9 1 15 12 15 15 -6 32
-12 10 -19 18 -15 19 17 0 46 -34 40 -48 -4 -11 -1 -13 9 -8 8 5 -33 -38 -91
-94 -58 -56 -153 -149 -211 -206 -58 -57 -111 -104 -116 -104 -6 0 -14 15 -17
33 -11 56 -14 71 -31 132 -9 33 -18 69 -20 80 -3 11 -25 101 -50 200 -25 99
-48 195 -51 214 -2 19 -7 38 -10 42 -3 5 -7 18 -9 29 -4 21 -1 21 60 6z m795
-26 c0 -5 -5 -10 -11 -10 -5 0 -7 5 -4 10 3 6 8 10 11 10 2 0 4 -4 4 -10z
m300 -295 c8 -1 25 -2 38 -3 13 -1 21 -5 19 -9 -3 -5 5 -9 16 -9 26 -2 22 -1
227 -59 91 -26 167 -49 169 -51 7 -7 -163 -164 -176 -164 -7 0 -13 -6 -13 -12
-1 -7 -6 -3 -13 10 -7 12 -17 19 -22 15 -4 -4 -5 -2 -1 5 4 7 11 10 15 8 4 -3
8 1 8 9 0 11 -5 11 -19 4 -14 -7 -24 -7 -34 2 -16 13 -19 34 -4 24 6 -3 10 -1
10 5 0 8 -10 10 -27 6 -16 -3 -22 -3 -15 0 6 3 10 10 6 15 -3 5 -2 9 3 8 19
-3 33 2 33 12 0 8 -5 8 -15 -1 -8 -7 -15 -9 -15 -5 0 4 -6 2 -13 -4 -14 -11
-27 -5 -27 13 0 7 3 6 8 -1 5 -9 12 -6 21 10 13 20 13 21 -2 9 -13 -11 -16
-10 -22 7 -3 12 -9 21 -13 22 -4 0 -15 2 -25 4 -14 3 -17 -1 -12 -18 5 -19 4
-19 -9 2 -7 14 -12 30 -9 37 2 7 -1 15 -8 20 -8 5 -10 3 -4 -6 6 -9 4 -11 -4
-6 -7 5 -10 15 -6 23 4 13 3 14 -10 3 -11 -9 -15 -9 -15 -1 0 7 -4 10 -9 6
-12 -7 -30 25 -24 41 5 13 -30 14 -39 1 -3 -6 -5 1 -5 16 1 14 6 22 12 19 5
-3 17 -7 25 -7z m750 -14 c0 -5 -8 -15 -17 -22 -16 -13 -17 -12 -4 4 8 10 9
17 3 17 -6 0 -16 -8 -21 -17 -6 -10 -11 -13 -11 -7 0 14 21 34 37 34 7 0 13
-4 13 -9z m159 -18 c4 -3 -28 2 -47 6 -2 1 0 6 3 11 5 8 12 7 23 -2 10 -7 19
-14 21 -15z m60 -25 c10 -18 11 -20 0 -10 -19 17 -29 15 -23 -5 5 -14 4 -15
-4 -4 -10 14 -6 41 7 41 3 0 12 -10 20 -22z m-1459 -38 c-8 -6 -10 -10 -4 -10
5 0 15 5 22 12 9 9 12 9 12 1 0 -7 -5 -15 -10 -18 -14 -9 -2 -25 18 -24 14 0
14 2 -2 8 -18 7 -18 8 -3 14 16 6 22 -4 18 -27 -1 -5 5 -6 13 -3 10 4 13 1 9
-9 -3 -9 0 -14 8 -12 9 2 13 -4 11 -16 -2 -10 1 -15 7 -12 5 4 12 2 15 -3 4
-5 1 -13 -5 -17 -8 -5 -9 -3 -4 6 5 8 4 11 -3 6 -6 -4 -9 -13 -6 -21 5 -12 8
-12 22 1 14 15 17 14 33 -7 10 -13 15 -26 12 -29 -3 -3 -8 1 -10 8 -3 6 -9 10
-14 7 -5 -4 -6 2 -2 12 7 19 5 18 -17 -10 -7 -10 -9 -17 -4 -16 22 4 35 -2 28
-13 -4 -7 -3 -8 4 -4 12 7 35 -27 25 -38 -3 -3 -1 -6 5 -6 15 0 15 6 2 30 -7
13 -7 21 2 26 6 4 8 3 5 -3 -4 -6 0 -13 8 -17 8 -3 12 -12 9 -21 -4 -10 0 -15
11 -15 9 0 13 -5 10 -11 -4 -6 -14 -8 -22 -4 -13 5 -14 3 -3 -10 10 -12 15
-13 20 -4 4 6 13 8 19 4 9 -5 9 -10 1 -20 -7 -9 -7 -14 -1 -17 9 -3 72 -221
86 -302 5 -24 3 -27 -12 -22 -20 8 -390 115 -417 121 -10 2 -50 14 -90 26 -39
11 -100 30 -136 40 -36 11 -71 22 -79 25 -9 3 14 32 70 86 46 44 142 137 213
205 70 68 131 121 134 118 4 -3 0 -10 -8 -15z m1180 15 c0 -7 -30 -13 -34 -7
-3 4 4 9 15 9 10 1 19 0 19 -2z m-547 -96 c-7 -25 -10 -21 -17 15 -4 22 -2 25
8 16 8 -6 12 -20 9 -31z m401 -73 c23 -77 28 -128 13 -120 -7 4 -3 -3 8 -15
14 -16 15 -22 5 -19 -8 2 -14 -2 -13 -9 2 -7 -4 -10 -13 -6 -9 3 -14 0 -12 -7
2 -8 -8 -19 -22 -27 -14 -7 -20 -13 -15 -13 11 0 -16 -20 -27 -20 -5 0 -8 5
-8 11 0 5 4 8 8 5 4 -2 13 4 20 15 7 11 8 19 2 19 -5 0 -10 -5 -10 -12 0 -6
-3 -8 -7 -5 -3 4 -12 2 -20 -5 -11 -9 -12 -7 -7 7 6 14 4 16 -6 10 -9 -5 -11
-4 -6 4 4 6 11 9 15 7 4 -3 13 0 21 6 13 8 12 9 -1 5 -9 -3 -22 0 -29 6 -10 9
-11 9 -6 0 4 -7 2 -13 -3 -13 -6 0 -11 7 -11 15 0 8 -4 15 -10 15 -5 0 -10 7
-10 15 0 8 -5 15 -11 15 -7 0 -4 -10 6 -26 13 -21 14 -29 4 -38 -9 -8 -10 -8
-5 1 8 15 -14 53 -32 53 -7 0 26 41 74 90 48 50 88 90 90 90 1 0 10 -24 18
-54z m108 5 c8 11 8 10 4 -4 -3 -10 0 -20 8 -23 15 -6 16 -28 2 -41 -4 -4 -7
-3 -6 2 5 21 0 35 -11 33 -6 -2 -13 8 -14 22 -2 14 -1 19 2 11 5 -11 7 -11 15
0z m-755 -245 c-7 -17 16 -39 28 -28 5 4 5 2 2 -5 -4 -6 -1 -14 5 -17 7 -3 6
-4 -4 -3 -9 1 -18 -2 -20 -8 -2 -5 12 -9 29 -9 18 1 30 -2 28 -7 -3 -4 3 -12
12 -18 11 -6 13 -11 6 -12 -7 -1 -17 -2 -22 -3 -5 0 -13 -5 -18 -10 -4 -5 -3
-6 4 -2 23 13 22 -12 -2 -32 -29 -26 -31 -26 -33 -9 -1 14 -7 41 -20 90 -9 31
-8 35 6 30 15 -4 16 -3 1 9 -17 14 -22 48 -6 48 5 0 7 -6 4 -14z m-757 -101
c8 -2 42 -11 75 -21 33 -10 65 -19 70 -20 6 -1 75 -21 155 -44 80 -23 152 -44
160 -45 30 -7 195 -57 198 -60 2 -2 -14 -21 -36 -42 -393 -381 -502 -485 -508
-486 -6 -2 -75 255 -109 408 -3 11 -12 49 -21 84 -9 36 -17 72 -19 80 -2 9 -8
36 -15 61 -7 25 -13 52 -15 60 -2 8 -4 20 -5 25 -5 21 1 24 28 14 15 -6 34
-12 42 -14z m926 -105 c3 -23 5 -24 14 -10 6 10 8 3 3 -22 -5 -33 -3 -37 15
-35 11 0 18 5 16 9 -3 5 -10 6 -15 3 -5 -4 -9 -2 -9 3 0 6 7 12 15 16 8 3 14
2 14 -2 -1 -4 0 -9 1 -12 12 -31 7 -37 -29 -29 -41 8 -114 30 -120 34 -6 7 34
43 57 49 13 5 20 12 16 19 -4 7 -1 7 7 -1 8 -7 15 -17 15 -22z m898 -79 c-15
-17 -32 -27 -37 -24 -6 3 -7 2 -4 -4 3 -5 -7 -21 -22 -36 l-28 -26 2 24 c2 13
-3 26 -11 29 -11 4 -12 1 -5 -12 6 -12 6 -23 0 -33 -9 -12 -10 -12 -6 1 6 21
-12 52 -28 47 -9 -4 -11 1 -7 15 3 13 1 19 -5 15 -5 -3 -10 0 -10 8 0 10 4 12
12 5 7 -5 15 -7 19 -3 4 4 4 0 1 -9 -4 -9 -1 -19 6 -24 7 -4 10 -3 6 3 -4 6 0
16 8 23 13 11 14 10 10 -3 -7 -17 10 -32 20 -17 4 6 11 8 16 5 5 -4 9 1 9 10
0 13 4 14 22 4 18 -10 20 -9 15 5 -4 10 -3 15 1 12 4 -2 14 -1 22 5 24 15 23
10 -6 -20z m-810 -7 c3 -8 2 -12 -4 -9 -6 3 -10 10 -10 16 0 14 7 11 14 -7z
m746 12 c0 -2 -7 -9 -15 -16 -13 -11 -14 -10 -9 4 5 14 24 23 24 12z m-780
-104 c47 -14 87 -27 90 -27 37 -10 59 -27 54 -40 -4 -9 3 -23 17 -35 13 -10
18 -19 12 -20 -7 0 -13 -5 -13 -11 0 -8 5 -8 15 1 8 7 16 10 16 6 1 -3 3 -10
4 -16 1 -5 3 -13 4 -16 0 -3 6 -2 11 1 8 5 7 11 -1 21 -8 10 -8 14 0 14 11 0
15 -13 12 -39 -2 -7 2 -10 8 -6 6 3 11 1 11 -5 0 -6 4 -9 8 -6 4 2 14 1 21 -3
10 -6 9 -10 -4 -14 -9 -4 -14 -3 -11 1 2 4 -4 8 -15 8 -10 0 -19 -4 -19 -8 0
-8 23 -12 49 -8 9 1 12 -5 9 -18 -3 -11 0 -19 8 -19 7 0 11 4 8 9 -3 4 -1 8 4
8 6 0 13 -7 16 -16 3 -8 2 -12 -4 -9 -6 3 -10 1 -10 -5 0 -6 -4 -9 -9 -5 -6 3
-8 -8 -6 -25 2 -16 -1 -33 -7 -36 -6 -4 -8 -3 -4 4 3 5 0 12 -6 15 -22 7 -37
-4 -31 -21 6 -15 4 -15 -14 1 -16 14 -20 14 -20 2 0 -8 4 -12 8 -10 4 3 10 -3
13 -12 4 -10 4 -14 0 -10 -5 4 -13 -2 -19 -14 -11 -19 -13 -19 -18 -5 -4 10
-3 15 3 11 6 -3 10 -1 10 4 0 6 -3 11 -7 11 -11 -1 -53 -37 -53 -46 0 -4 10 1
23 12 12 10 19 15 15 10 -4 -5 -2 -16 5 -25 11 -14 10 -14 -5 -2 -17 13 -23 8
-18 -14 1 -5 -7 -2 -18 8 -20 18 -34 14 -25 -9 3 -8 10 -11 16 -7 6 3 7 1 3
-5 -6 -10 -19 -10 -56 1 -8 2 -12 2 -7 0 14 -9 7 -25 -9 -19 -10 4 -13 2 -8
-6 5 -8 2 -9 -10 -5 -10 4 -19 1 -22 -8 -4 -8 -10 -12 -15 -9 -5 3 -6 -2 -3
-10 8 -21 13 -20 22 5 7 19 9 19 22 4 11 -14 11 -16 -1 -13 -8 2 -13 -3 -11
-12 2 -8 0 -12 -4 -7 -4 4 -16 -1 -26 -10 -17 -15 -20 -15 -28 -3 -5 8 -7 23
-4 33 3 9 1 17 -4 17 -5 0 -16 30 -26 68 -32 124 -68 267 -71 282 -2 8 -10 43
-19 76 -9 34 -16 66 -16 72 0 12 23 6 160 -36z m-234 -8 c3 -16 8 -38 11 -49
3 -11 8 -29 9 -40 2 -11 13 -56 24 -100 31 -118 31 -119 34 -132 1 -7 5 -15 8
-19 9 -8 -2 -35 -11 -29 -4 2 -8 -2 -8 -9 0 -8 7 -12 16 -9 14 4 14 4 1 -6
-21 -15 -30 -14 -30 4 0 17 -16 20 -25 5 -4 -6 -10 -8 -14 -6 -4 3 -8 -1 -8
-9 0 -8 4 -12 8 -10 4 3 9 -1 12 -9 6 -16 -23 -17 -36 -1 -5 6 -7 3 -4 -7 3
-9 -1 -19 -9 -22 -8 -3 -13 -9 -12 -13 2 -4 -1 -8 -7 -8 -5 0 -9 4 -7 8 1 5
-2 6 -8 2 -8 -5 -7 -11 1 -21 9 -11 8 -14 -2 -14 -9 -1 -8 -4 4 -11 14 -8 16
-14 7 -24 -7 -8 -9 -18 -6 -23 3 -5 -1 -9 -9 -9 -8 0 -12 4 -9 8 2 4 0 10 -5
13 -6 4 -8 -7 -6 -24 2 -18 0 -28 -5 -25 -6 3 -7 -1 -4 -10 5 -13 9 -13 23 -3
10 7 9 4 -3 -8 -14 -15 -20 -16 -23 -5 -5 11 -7 11 -14 0 -7 -11 -9 -11 -9 -1
0 7 -4 11 -10 7 -7 -5 -428 110 -438 120 -2 1 46 50 105 108 363 353 439 425
446 418 4 -4 10 -21 13 -37z m402 -61 c-2 -10 3 -18 11 -18 8 0 15 -8 17 -19
2 -16 0 -16 -21 4 -13 12 -21 28 -18 36 7 20 14 17 11 -3z m687 -63 c3 -5 1
-10 -4 -10 -6 0 -11 5 -11 10 0 6 2 10 4 10 3 0 8 -4 11 -10z m-540 -140 c-3
-5 -11 -10 -16 -10 -6 0 -7 5 -4 10 3 6 11 10 16 10 6 0 7 -4 4 -10z m684 -34
c9 -10 7 -17 -5 -27 -15 -12 -16 -11 -9 11 7 23 7 24 -11 10 -18 -14 -18 -14
-5 3 16 21 16 20 30 3z m21 -66 c0 -5 -5 -10 -11 -10 -5 0 -7 5 -4 10 3 6 8
10 11 10 2 0 4 -4 4 -10z m35 -8 c15 6 35 -36 24 -52 -9 -13 -10 -12 -5 2 5
16 -25 44 -36 33 -2 -2 -5 6 -5 18 -2 15 0 18 6 9 5 -8 12 -12 16 -10z m-1242
-33 c4 -16 3 -18 -9 -8 -7 6 -11 15 -8 20 8 13 11 11 17 -12z m-28 -39 c4 -6
1 -9 -7 -8 -7 2 -12 -5 -11 -15 0 -10 -2 -16 -5 -13 -3 3 -15 -2 -26 -11 -21
-18 -21 -18 -2 5 11 12 15 22 11 22 -5 0 0 7 11 15 23 18 21 17 29 5z m315 2
c0 -4 -10 -9 -22 -9 -18 -2 -20 0 -8 7 18 12 30 13 30 2z m1035 -22 c-3 -5 2
-13 11 -18 15 -8 14 -10 -2 -14 -15 -4 -19 1 -21 24 -1 17 2 26 8 23 5 -4 7
-10 4 -15z m-1685 -184 c107 -31 197 -61 198 -66 2 -6 8 -7 14 -4 10 7 28 -13
28 -31 0 -5 -5 -3 -10 5 -7 12 -11 12 -20 2 -5 -6 -7 -10 -4 -7 4 2 15 -6 24
-18 13 -16 15 -26 8 -34 -6 -7 -15 -10 -20 -7 -7 5 -7 1 0 -11 5 -10 17 -20
26 -21 9 -1 14 2 10 7 -3 5 -10 7 -15 4 -5 -4 -9 -2 -9 4 0 5 9 9 19 8 11 0
19 -4 19 -7 -2 -27 2 -32 20 -19 15 12 16 12 5 -2 -7 -9 -9 -19 -5 -24 4 -4
-3 -3 -15 4 -12 6 -23 11 -25 11 -2 0 -2 -22 -1 -50 1 -41 -1 -47 -12 -37 -10
9 -10 16 -1 27 9 13 9 13 -5 3 -9 -7 -20 -9 -24 -5 -5 4 -1 -4 8 -18 16 -23
16 -25 -6 -37 -12 -7 -16 -12 -9 -13 7 0 10 -5 6 -12 -4 -7 -3 -8 4 -4 7 4 9
-1 7 -16 -5 -22 -282 -305 -305 -310 -9 -2 -129 453 -195 739 -5 22 -5 22 42
8 27 -8 136 -39 243 -69z m1804 45 c3 -5 -1 -11 -9 -14 -9 -4 -12 -1 -8 9 6
16 10 17 17 5z m623 -211 c-1 -11 -2 -20 -4 -20 -1 0 -7 9 -13 20 -8 16 -8 20
4 20 9 0 14 -8 13 -20z m-941 -43 c2 -13 -2 -15 -16 -7 -9 5 -21 6 -26 2 -5
-4 -2 1 5 11 16 21 33 18 37 -6z m573 4 c2 -1 -2 -7 -8 -14 -6 -8 -10 -16 -8
-18 1 -2 0 -3 -2 -1 -10 5 -40 -32 -34 -42 3 -6 3 -8 -2 -4 -4 4 -15 2 -23 -5
-11 -8 -14 -8 -9 0 4 6 3 14 -3 18 -6 4 -8 11 -5 16 4 5 0 9 -7 9 -9 0 -9 3 2
10 12 8 12 10 1 10 -8 0 -11 3 -8 7 4 3 16 -2 26 -11 16 -14 23 -15 41 -6 16
9 19 14 10 25 -11 13 -8 13 29 6z m-1785 -37 c3 -8 2 -12 -4 -9 -6 3 -10 10
-10 16 0 14 7 11 14 -7z m1267 -7 c-10 -9 -11 -8 -5 6 3 10 9 15 12 12 3 -3 0
-11 -7 -18z m879 -37 c6 -11 7 -20 2 -20 -6 0 -12 9 -15 20 -3 11 -3 20 -1 20
2 0 8 -9 14 -20z m-1285 -30 c-3 -5 -11 -10 -16 -10 -6 0 -7 5 -4 10 3 6 11
10 16 10 6 0 7 -4 4 -10z m516 -7 c13 -15 12 -15 -8 -4 -24 12 -29 21 -14 21
5 0 15 -7 22 -17z m-1411 -13 c0 -5 -7 -7 -15 -4 -8 4 -15 8 -15 10 0 2 7 4
15 4 8 0 15 -4 15 -10z m2165 -50 c3 -5 1 -10 -4 -10 -6 0 -11 5 -11 10 0 6 2
10 4 10 3 0 8 -4 11 -10z m-669 -69 c-4 -5 -1 -12 4 -14 6 -3 5 -4 -2 -3 -15
3 -23 26 -8 26 6 0 9 -4 6 -9z m624 -37 c0 -2 -9 0 -20 6 -11 6 -20 13 -20 16
0 2 9 0 20 -6 11 -6 20 -13 20 -16z m-51 -40 c-6 -8 -15 -12 -18 -8 -3 4 0 9
7 11 6 3 9 10 6 15 -4 7 -2 8 5 4 9 -6 9 -11 0 -22z m-1309 1 c0 -12 -19 -12
-23 0 -4 9 -1 12 9 8 7 -3 14 -7 14 -8z m-225 -165 c-3 -5 -1 -10 6 -10 7 0
10 -3 6 -6 -9 -9 -28 6 -22 17 4 5 8 9 11 9 3 0 2 -4 -1 -10z m-551 -26 c5
-14 4 -15 -9 -4 -17 14 -19 20 -6 20 5 0 12 -7 15 -16z"/>
<path d="M427 3293 c-10 -9 -9 -23 1 -23 5 0 9 7 9 15 0 17 -1 18 -10 8z"/>
<path d="M463 3231 c0 -11 3 -18 6 -16 2 3 10 0 17 -6 9 -7 14 -6 20 3 4 7 4
10 -1 6 -4 -4 -16 2 -26 13 l-18 21 2 -21z"/>
<path d="M495 3180 c3 -5 13 -10 21 -10 11 0 14 -7 10 -22 -3 -13 -3 -17 0
-10 3 6 10 10 15 7 5 -4 6 1 3 10 -4 8 -15 20 -25 25 -23 13 -32 13 -24 0z"/>
<path d="M763 2903 c4 -3 1 -13 -6 -22 -11 -14 -10 -14 5 -2 16 12 16 31 1 31
-4 0 -3 -3 0 -7z"/>
<path d="M810 2834 c0 -8 5 -12 10 -9 6 4 8 11 5 16 -9 14 -15 11 -15 -7z"/>
<path d="M2820 2481 c0 -6 4 -13 10 -16 6 -3 7 1 4 9 -7 18 -14 21 -14 7z"/>
<path d="M2924 2475 c1 -8 6 -18 11 -22 4 -4 5 -3 2 4 -4 6 -2 13 5 15 8 3 6
6 -4 10 -10 4 -15 2 -14 -7z"/>
<path d="M2695 2460 c-3 -5 -1 -10 4 -10 6 0 11 5 11 10 0 6 -2 10 -4 10 -3 0
-8 -4 -11 -10z"/>
<path d="M2960 2460 c-9 -6 -10 -10 -3 -10 6 0 15 5 18 10 8 12 4 12 -15 0z"/>
<path d="M950 2650 c0 -5 3 -9 8 -9 20 3 23 -3 11 -18 -13 -16 -12 -17 4 -4
13 10 15 17 6 27 -13 16 -29 18 -29 4z"/>
<path d="M1014 2582 c0 -10 8 -18 18 -18 16 0 16 2 1 18 -9 10 -17 18 -17 18
-1 0 -2 -8 -2 -18z"/>
<path d="M1706 2439 c1 -13 3 -27 3 -31 1 -9 28 -4 38 7 4 4 2 5 -4 1 -7 -4
-13 -3 -13 1 0 5 -6 17 -13 28 -13 17 -14 16 -11 -6z"/>
<path d="M1795 2384 c2 -4 0 -15 -6 -25 -7 -14 -6 -17 5 -13 14 5 16 29 3 39
-4 3 -5 2 -2 -1z"/>
<path d="M1910 2220 c0 -5 4 -10 9 -10 6 0 13 5 16 10 3 6 -1 10 -9 10 -9 0
-16 -4 -16 -10z"/>
<path d="M1967 2190 c-3 -11 -3 -20 -1 -20 2 0 8 9 14 20 6 11 7 20 2 20 -6 0
-12 -9 -15 -20z"/>
<path d="M1237 2309 c7 -7 15 -10 18 -7 3 3 -2 9 -12 12 -14 6 -15 5 -6 -5z"/>
<path d="M2215 2069 c-3 -4 2 -6 10 -5 21 3 28 13 10 13 -9 0 -18 -4 -20 -8z"/>
<path d="M2197 2040 c3 -11 9 -17 15 -14 5 3 4 12 -3 20 -16 19 -18 18 -12 -6z"/>
<path d="M1625 1889 c-4 -6 -4 -13 -1 -16 3 -4 6 -1 6 7 0 10 4 10 18 -1 15
-13 16 -12 3 4 -16 20 -18 20 -26 6z"/>
<path d="M1736 1772 c-2 -4 2 -16 10 -27 8 -10 14 -14 14 -8 0 7 -5 15 -10 18
-6 4 -8 11 -5 16 4 5 4 9 1 9 -3 0 -7 -3 -10 -8z"/>
<path d="M1796 1101 c-4 -5 -2 -12 3 -15 5 -4 12 -2 15 3 4 5 2 12 -3 15 -5 4
-12 2 -15 -3z"/>
<path d="M1506 1058 c3 -5 10 -6 15 -3 13 9 11 12 -6 12 -8 0 -12 -4 -9 -9z"/>
<path d="M1461 811 c-10 -7 -8 -10 8 -16 27 -8 36 -2 18 13 -7 6 -18 7 -26 3z"/>
<path d="M1446 569 c4 -6 1 -15 -6 -19 -7 -4 -8 -10 -3 -13 5 -3 14 3 21 13 9
14 8 19 -4 24 -9 4 -12 2 -8 -5z"/>
<path d="M3234 683 c2 -10 6 -17 10 -16 15 3 16 11 2 22 -12 10 -14 9 -12 -6z"/>
<path d="M242 3464 c10 -10 20 -16 22 -13 3 3 -5 11 -17 18 -21 13 -21 12 -5
-5z"/>
<path d="M2623 1520 c2 -8 12 -16 23 -17 13 -2 15 -1 4 4 -8 3 -19 11 -23 17
-6 7 -7 6 -4 -4z"/>
<path d="M2757 1331 c-16 -6 -17 -9 -4 -19 11 -10 17 -9 26 2 14 17 3 26 -22
17z"/>
<path d="M3520 892 c0 -7 -4 -10 -10 -7 -6 3 -7 -1 -4 -9 3 -9 10 -16 14 -16
15 0 19 15 9 30 -6 11 -9 12 -9 2z"/>
<path d="M3606 881 c-3 -5 1 -11 9 -14 9 -4 12 -1 8 9 -6 16 -10 17 -17 5z"/>
<path d="M3463 864 c-4 -11 -8 -12 -13 -4 -5 8 -9 7 -13 -3 -8 -21 23 -15 35
6 5 9 6 17 3 17 -3 0 -8 -7 -12 -16z"/>
<path d="M2447 839 c7 -7 15 -10 18 -7 3 3 -2 9 -12 12 -14 6 -15 5 -6 -5z"/>
<path d="M3383 836 c1 -6 -4 -10 -10 -11 -12 0 -18 -11 -10 -17 1 -2 15 7 30
19 24 19 25 22 8 20 -11 0 -19 -6 -18 -11z"/>
<path d="M2495 831 c-3 -5 -2 -12 3 -15 5 -3 9 1 9 9 0 17 -3 19 -12 6z"/>
<path d="M2447 809 c7 -7 15 -10 18 -7 3 3 -2 9 -12 12 -14 6 -15 5 -6 -5z"/>
<path d="M2445 760 c-16 -7 -17 -9 -3 -9 9 -1 20 4 23 9 7 11 7 11 -20 0z"/>
<path d="M3233 755 c0 -8 4 -12 9 -9 5 3 6 10 3 15 -9 13 -12 11 -12 -6z"/>
<path d="M3675 519 c-4 -6 -5 -12 -2 -15 2 -3 7 2 10 11 7 17 1 20 -8 4z"/>
<path d="M2205 360 c-10 -11 -15 -23 -12 -27 4 -3 7 -1 7 6 0 7 5 9 10 6 6 -4
9 -1 8 7 -2 7 3 12 10 10 8 -1 11 2 7 8 -8 13 -9 13 -30 -10z"/>
<path d="M3025 320 c-3 -5 -1 -10 4 -10 6 0 11 5 11 10 0 6 -2 10 -4 10 -3 0
-8 -4 -11 -10z"/>
<path d="M3450 325 c0 -23 15 -33 27 -19 8 8 9 15 3 19 -6 3 -10 0 -10 -7 0
-9 -3 -9 -10 2 -5 8 -10 11 -10 5z"/>
<path d="M2010 179 c0 -5 5 -7 10 -4 6 3 10 8 10 11 0 2 -4 4 -10 4 -5 0 -10
-5 -10 -11z"/>
<path d="M3254 152 c-19 -16 -19 -19 -6 -32 14 -13 15 -12 9 3 -3 9 -2 19 3
22 4 3 10 -1 13 -7 3 -7 4 -3 4 10 -1 12 -1 22 -2 22 0 -1 -9 -9 -21 -18z"/>
<path d="M1575 149 c-10 -15 3 -25 16 -12 7 7 7 13 1 17 -6 3 -14 1 -17 -5z"/>
<path d="M1660 133 c0 -1 8 -7 18 -12 13 -7 19 -6 19 2 0 7 -9 13 -19 13 -10
0 -18 -1 -18 -3z"/>
<path d="M1710 120 c0 -5 5 -10 11 -10 5 0 7 5 4 10 -3 6 -8 10 -11 10 -2 0
-4 -4 -4 -10z"/>
<path d="M3155 120 c-3 -5 -1 -10 4 -10 6 0 11 5 11 10 0 6 -2 10 -4 10 -3 0
-8 -4 -11 -10z"/>
</g>
</svg>
